#!OML:ASF X:\für Bonn\!DataBase\2005_08_12_Daniel\c3d\Daniel.ASF
:FULLY-SPECIFIED
:DEGREES
47
root 1.87785 15.938 -5.38443 -1251.31 118.242 191.936
lowerback 52.5476 2.46095 -7.88425
upperback 12.0142 0.213285 -3.03109
thorax -7.19338 0.867632 0.108758
lowerneck 6.27392 1.69001 -3.44239
upperneck 7.81498 1.99883 4.1891
head 1.30704 0.990451 1.88827
rclavicle -3.89618e-014 -5.56597e-015
rhumerus -369.235 12.9322 271.342
rradius 41.8218
rwrist 13.0973
rhand -18.0055 737.976
rfingers 7.12502
rthumb 8.26501 708.158
lclavicle -3.89618e-014 -5.56597e-015
lhumerus -371.358 0.890848 -280.607
lradius 41.5931
lwrist -10.7618
lhand -12.0611 -722.306
lfingers 7.12502
lthumb 13.9981 -332.797
rfemur -9.44845 -7.33599 12.4483
rtibia 70.1924
rfoot 371.399 21.9927
rtoes 19.102
lfemur -42.535 -7.91061 -19.6543
ltibia 52.2279
lfoot -7.42203 -12.5279
ltoes 1.97911
48
root 2.00133 15.9225 -5.36946 -1251.74 118.781 191.349
lowerback 53.2583 2.52373 -7.89225
upperback 12.0721 0.231763 -3.07502
thorax -7.19843 0.888266 0.0323853
lowerneck 6.6213 1.77294 -3.50501
upperneck 7.62031 2.10326 4.0372
head 1.18331 1.03435 1.84169
rclavicle 2.46493e-014 -3.26007e-014
rhumerus -368.379 13.4477 271.482
rradius 41.8482
rwrist 13.1103
rhand -17.989 737.879
rfingers 7.12502
rthumb 8.28093 708.061
lclavicle 2.46493e-014 -3.26007e-014
lhumerus -370.347 -0.125769 -280.911
lradius 41.9613
lwrist -10.8817
lhand -11.9129 -722.704
lfingers 7.12502
lthumb 14.1409 -333.205
rfemur -11.0357 -8.01903 12.0027
rtibia 72.2483
rfoot 370.821 22.047
rtoes 15.6463
lfemur -42.729 -7.22181 -19.69
ltibia 53.2333
lfoot -7.98626 -12.8182
ltoes 2.3303
49
root 2.1248 15.9053 -5.35366 -1252.14 119.314 190.755
lowerback 53.9026 2.55948 -7.84349
upperback 12.148 0.251684 -3.14533
thorax -7.17509 0.910645 -0.0958183
lowerneck 7.02761 1.83303 -3.54556
upperneck 7.36434 2.17638 3.88923
head 1.03249 1.06329 1.79167
rclavicle 1.78906e-014 -3.06128e-014
rhumerus -367.455 13.8637 271.594
rradius 41.818
rwrist 13.1967
rhand -17.9464 737.783
rfingers 7.12502
rthumb 8.32208 707.967
lclavicle 1.78906e-014 -3.06128e-014
lhumerus -369.296 -1.28135 -281.313
lradius 42.3883
lwrist -10.9568
lhand -11.8445 -722.968
lfingers 7.12502
lthumb 14.2068 -333.474
rfemur -12.6385 -8.76429 11.5969
rtibia 74.2239
rfoot 369.756 22.1787
rtoes 12.7943
lfemur -42.9714 -6.51897 -19.7124
ltibia 54.2431
lfoot -8.54369 -13.131
ltoes 2.63245
50
root 2.24749 15.8851 -5.33871 -1252.63 119.849 190.082
lowerback 54.5722 2.56989 -7.7343
upperback 12.2205 0.27079 -3.21788
thorax -7.15658 0.933962 -0.253677
lowerneck 7.38262 1.89555 -3.60609
upperneck 7.14222 2.25051 3.75491
head 0.90137 1.09337 1.75091
rclavicle 5.28767e-014 -7.95139e-015
rhumerus -366.472 14.3 271.731
rradius 41.7626
rwrist 13.2827
rhand -17.872 737.64
rfingers 7.12502
rthumb 8.39384 707.826
lclavicle 5.28767e-014 -7.95139e-015
lhumerus -368.139 -2.54429 -281.818
lradius 42.7043
lwrist -10.9355
lhand -11.8935 -723.187
lfingers 7.12502
lthumb 14.1596 -333.689
rfemur -14.1907 -9.53368 11.266
rtibia 76.1009
rfoot 368.25 22.3635
rtoes 10.7445
lfemur -43.1999 -5.85516 -19.6648
ltibia 55.2709
lfoot -9.14731 -13.4431
ltoes 2.9175
51
root 2.36947 15.8613 -5.32507 -1253.1 120.365 189.407
lowerback 55.2362 2.55088 -7.6005
upperback 12.2887 0.270063 -3.28496
thorax -7.13899 0.948028 -0.407558
lowerneck 7.68518 1.96863 -3.75317
upperneck 6.94104 2.33047 3.67906
head 0.784215 1.1254 1.74529
rclavicle -2.74323e-014 3.10104e-014
rhumerus -365.438 14.7653 271.891
rradius 41.6465
rwrist 13.3639
rhand -17.7698 737.612
rfingers 7.12502
rthumb 8.49247 707.803
lclavicle -2.74323e-014 3.10104e-014
lhumerus -366.94 -3.77283 -282.386
lradius 43.0453
lwrist -10.8644
lhand -11.9979 -723.276
lfingers 7.12502
lthumb 14.059 -333.771
rfemur -15.7428 -10.3534 10.9791
rtibia 77.8668
rfoot 366.303 22.5664
rtoes 9.10254
lfemur -43.4611 -5.22021 -19.6116
ltibia 56.3233
lfoot -9.79268 -13.7325
ltoes 3.15173
